{"title":"Gangbang Mom 2 dvd","uid":10219149,"size":2376380146,"categoryP":"porn","categoryS":"movies","magnet":"?xt=urn:btih:16acb18d4fe5d0e6695d6347f40ef26358a21a20&amp;dn=Gangbang+Mom+2+dvd&amp;tr=udp%3A%2F%2Ftracker.openbittorrent.com%3A80&amp;tr=udp%3A%2F%2Fopen.demonii.com%3A1337&amp;tr=udp%3A%2F%2Ftracker.coppersurfer.tk%3A6969&amp;tr=udp%3A%2F%2Fexodus.desync.com%3A6969","seeders":0,"leechers":5,"uploader":"NETBOX68","files":1,"time":1401005662,"description":"Gangbang Mom 2 dvd\n------------------------------------\ncovers\n*****************************\nfront\n &lt;a href=&quot;\nhttp://bayimg.com/bAOBjAafD&quot; rel=&quot;nofollow&quot; target=&quot;_NEW&quot;&gt;\nhttp://bayimg.com/bAOBjAafD&lt;/a&gt;\n\n***************************\nback\n &lt;a href=&quot;\nhttp://bayimg.com/bAoBlaaFd&quot; rel=&quot;nofollow&quot; target=&quot;_NEW&quot;&gt;\nhttp://bayimg.com/bAoBlaaFd&lt;/a&gt;\n\n***************************\nscreen\n &lt;a href=&quot;\nhttp://bayimg.com/bAOBMaaFD&quot; rel=&quot;nofollow&quot; target=&quot;_NEW&quot;&gt;\nhttp://bayimg.com/bAOBMaaFD&lt;/a&gt;\n\n--------------------------------\ndvd\n*************************\nmin = 02 01 ' 37 ''\ngb = 2.20\n1280*720\n-----------------------------------\nstoixeia\n----------------\nGeneral\nComplete name                    : C:ETOIMAxxxDVDGangbang Mom 2dvdGangbang Mom 2.avi\nFormat                           : AVI\nFormat/Info                      : Audio Video Interleave\nFormat profile                   : OpenDML\nFile size                        : 2.21 GiB\nDuration                         : 2h 1mn\nOverall bit rate                 : 2 597 Kbps\nWriting application              : MEncoder SVN-r30881(20100311-gcc4.3.3)\nWriting library                  : MPlayer\n\nVideo\nID                               : 0\nFormat                           : MPEG-4 Visual\nFormat profile                   : Advanced Simple@L5\nFormat settings, BVOP            : 2\nFormat settings, QPel            : No\nFormat settings, GMC             : No warppoints\nFormat settings, Matrix          : Default (H.263)\nCodec ID                         : XVID\nCodec ID/Hint                    : XviD\nDuration                         : 2h 1mn\nBit rate                         : 2 393 Kbps\nWidth                            : 1 280 pixels\nHeight                           : 720 pixels\nDisplay aspect ratio             : 16:9\nFrame rate                       : 25.000 fps\nColor space                      : YUV\nChroma subsampling               : 4:2:0\nBit depth                        : 8 bits\nScan type                        : Progressive\nCompression mode                 : Lossy\nBits/(Pixel*Frame)               : 0.104\nStream size                      : 2.03 GiB (92%)\nWriting library                  : XviD 1.2.1 (UTC 2008-12-04)\n\nAudio\nID                               : 1\nFormat                           : MPEG Audio\nFormat version                   : Version 1\nFormat profile                   : Layer 3\nMode                             : Joint stereo\nMode extension                   : MS Stereo\nCodec ID                         : 55\nCodec ID/Hint                    : MP3\nDuration                         : 2h 1mn\nBit rate mode                    : Constant\nBit rate                         : 192 Kbps\nChannel(s)                       : 2 channels\nSampling rate                    : 48.0 KHz\nCompression mode                 : Lossy\nStream size                      : 3.28 MiB (0%)\nAlignment                        : Aligned on interleaves\nInterleave, duration             : 1224 ms (30.60 video frames)\nInterleave, preload duration     : 504 ms\nWriting library                  : LAME3.98\n\n","torrent":{"xt":"urn:btih:16acb18d4fe5d0e6695d6347f40ef26358a21a20","amp;dn":"Gangbang+Mom+2+dvd","amp;tr":["udp%3A%2F%2Ftracker.openbittorrent.com%3A80","udp%3A%2F%2Fopen.demonii.com%3A1337","udp%3A%2F%2Ftracker.coppersurfer.tk%3A6969","udp%3A%2F%2Fexodus.desync.com%3A6969"],"infoHash":"16acb18d4fe5d0e6695d6347f40ef26358a21a20","infoHashBuffer":{"type":"Buffer","data":[22,172,177,141,79,229,208,230,105,93,99,71,244,14,242,99,88,162,26,32]},"announce":[],"urlList":[]}}